<mxfile host="app.diagrams.net" modified="2024-04-06T10:23:23.128Z" agent="Mozilla/5.0 (Windows NT 10.0; Win64; x64) AppleWebKit/537.36 (KHTML, like Gecko) Chrome/122.0.0.0 Safari/537.36 OPR/108.0.0.0" etag="Sy_fe8oTsT-tZXEEcDee" version="24.2.2" type="github">
  <diagram name="Page-1" id="kuzdRpdBAsN8iNOsUWBB">
    <mxGraphModel dx="996" dy="559" grid="1" gridSize="10" guides="1" tooltips="1" connect="1" arrows="1" fold="1" page="1" pageScale="1" pageWidth="850" pageHeight="1100" math="0" shadow="0">
      <root>
        <mxCell id="0" />
        <mxCell id="1" parent="0" />
        <mxCell id="pwKQtz1z0pktfYnzHD7Z-20" value="" style="rounded=0;whiteSpace=wrap;html=1;fillColor=#e1d5e7;strokeColor=#9673a6;" vertex="1" parent="1">
          <mxGeometry x="230" y="80" width="430" height="460" as="geometry" />
        </mxCell>
        <mxCell id="pwKQtz1z0pktfYnzHD7Z-13" style="edgeStyle=none;rounded=0;orthogonalLoop=1;jettySize=auto;html=1;exitX=1;exitY=0.3333333333333333;exitDx=0;exitDy=0;exitPerimeter=0;" edge="1" parent="1" source="pwKQtz1z0pktfYnzHD7Z-1" target="pwKQtz1z0pktfYnzHD7Z-3">
          <mxGeometry relative="1" as="geometry" />
        </mxCell>
        <mxCell id="pwKQtz1z0pktfYnzHD7Z-15" style="edgeStyle=none;rounded=0;orthogonalLoop=1;jettySize=auto;html=1;exitX=1;exitY=0.3333333333333333;exitDx=0;exitDy=0;exitPerimeter=0;entryX=0;entryY=0.5;entryDx=0;entryDy=0;" edge="1" parent="1" source="pwKQtz1z0pktfYnzHD7Z-1" target="pwKQtz1z0pktfYnzHD7Z-5">
          <mxGeometry relative="1" as="geometry" />
        </mxCell>
        <mxCell id="pwKQtz1z0pktfYnzHD7Z-16" style="edgeStyle=none;rounded=0;orthogonalLoop=1;jettySize=auto;html=1;exitX=1;exitY=0.3333333333333333;exitDx=0;exitDy=0;exitPerimeter=0;" edge="1" parent="1" source="pwKQtz1z0pktfYnzHD7Z-1" target="pwKQtz1z0pktfYnzHD7Z-6">
          <mxGeometry relative="1" as="geometry" />
        </mxCell>
        <mxCell id="pwKQtz1z0pktfYnzHD7Z-1" value="Pharmacy Manager" style="shape=umlActor;verticalLabelPosition=bottom;verticalAlign=top;html=1;outlineConnect=0;" vertex="1" parent="1">
          <mxGeometry x="120" y="300" width="30" height="60" as="geometry" />
        </mxCell>
        <mxCell id="pwKQtz1z0pktfYnzHD7Z-18" style="edgeStyle=none;rounded=0;orthogonalLoop=1;jettySize=auto;html=1;exitX=0;exitY=0.3333333333333333;exitDx=0;exitDy=0;exitPerimeter=0;" edge="1" parent="1" source="pwKQtz1z0pktfYnzHD7Z-2" target="pwKQtz1z0pktfYnzHD7Z-8">
          <mxGeometry relative="1" as="geometry" />
        </mxCell>
        <mxCell id="pwKQtz1z0pktfYnzHD7Z-19" style="edgeStyle=none;rounded=0;orthogonalLoop=1;jettySize=auto;html=1;exitX=0;exitY=0.3333333333333333;exitDx=0;exitDy=0;exitPerimeter=0;entryX=1;entryY=0.5;entryDx=0;entryDy=0;" edge="1" parent="1" source="pwKQtz1z0pktfYnzHD7Z-2" target="pwKQtz1z0pktfYnzHD7Z-7">
          <mxGeometry relative="1" as="geometry" />
        </mxCell>
        <mxCell id="pwKQtz1z0pktfYnzHD7Z-2" value="System" style="shape=umlActor;verticalLabelPosition=bottom;verticalAlign=top;html=1;outlineConnect=0;" vertex="1" parent="1">
          <mxGeometry x="720" y="300" width="30" height="60" as="geometry" />
        </mxCell>
        <mxCell id="pwKQtz1z0pktfYnzHD7Z-3" value="Access employee management" style="ellipse;whiteSpace=wrap;html=1;" vertex="1" parent="1">
          <mxGeometry x="280" y="130" width="120" height="80" as="geometry" />
        </mxCell>
        <mxCell id="pwKQtz1z0pktfYnzHD7Z-4" value="View employee Details" style="ellipse;whiteSpace=wrap;html=1;" vertex="1" parent="1">
          <mxGeometry x="280" y="220" width="120" height="80" as="geometry" />
        </mxCell>
        <mxCell id="pwKQtz1z0pktfYnzHD7Z-5" value="Update employee details" style="ellipse;whiteSpace=wrap;html=1;" vertex="1" parent="1">
          <mxGeometry x="280" y="320" width="120" height="80" as="geometry" />
        </mxCell>
        <mxCell id="pwKQtz1z0pktfYnzHD7Z-6" value="Manage employee schedule" style="ellipse;whiteSpace=wrap;html=1;" vertex="1" parent="1">
          <mxGeometry x="280" y="440" width="120" height="80" as="geometry" />
        </mxCell>
        <mxCell id="pwKQtz1z0pktfYnzHD7Z-7" value="Update employee payroll" style="ellipse;whiteSpace=wrap;html=1;" vertex="1" parent="1">
          <mxGeometry x="490" y="390" width="120" height="80" as="geometry" />
        </mxCell>
        <mxCell id="pwKQtz1z0pktfYnzHD7Z-8" value="Present relevant employee details" style="ellipse;whiteSpace=wrap;html=1;" vertex="1" parent="1">
          <mxGeometry x="500" y="280" width="120" height="80" as="geometry" />
        </mxCell>
        <mxCell id="pwKQtz1z0pktfYnzHD7Z-9" value="Display employee" style="ellipse;whiteSpace=wrap;html=1;" vertex="1" parent="1">
          <mxGeometry x="500" y="180" width="120" height="80" as="geometry" />
        </mxCell>
        <mxCell id="pwKQtz1z0pktfYnzHD7Z-14" style="edgeStyle=none;rounded=0;orthogonalLoop=1;jettySize=auto;html=1;exitX=1;exitY=0.3333333333333333;exitDx=0;exitDy=0;exitPerimeter=0;entryX=0.028;entryY=0.722;entryDx=0;entryDy=0;entryPerimeter=0;" edge="1" parent="1" source="pwKQtz1z0pktfYnzHD7Z-1" target="pwKQtz1z0pktfYnzHD7Z-4">
          <mxGeometry relative="1" as="geometry" />
        </mxCell>
        <mxCell id="pwKQtz1z0pktfYnzHD7Z-17" style="edgeStyle=none;rounded=0;orthogonalLoop=1;jettySize=auto;html=1;exitX=0;exitY=0.3333333333333333;exitDx=0;exitDy=0;exitPerimeter=0;entryX=1.015;entryY=0.693;entryDx=0;entryDy=0;entryPerimeter=0;" edge="1" parent="1" source="pwKQtz1z0pktfYnzHD7Z-2" target="pwKQtz1z0pktfYnzHD7Z-9">
          <mxGeometry relative="1" as="geometry" />
        </mxCell>
        <mxCell id="pwKQtz1z0pktfYnzHD7Z-21" value="Employee Management" style="text;html=1;align=center;verticalAlign=middle;whiteSpace=wrap;rounded=0;" vertex="1" parent="1">
          <mxGeometry x="370" y="80" width="150" height="30" as="geometry" />
        </mxCell>
      </root>
    </mxGraphModel>
  </diagram>
</mxfile>
